#!OML:ASF I:\Actors\actors\Patient Classification 2\Patient 1\Session 1\actor1.ASF
:FULLY-SPECIFIED
:DEGREES
429
root -0.15993 18.806 4.80304 21.5485 6.66214 -2.53259
lowerback 32.3605 -0.645313 0.774103
upperback 3.88411 -0.298509 1.60652
thorax -12.4233 -0.132499 1.42209
lowerneck -14.0534 -2.85251 0.857724
upperneck -14.4627 -3.42949 6.7056
head -2.18644 -1.87435 1.9423
rclavicle 8.94531e-016 -6.65929e-015
rhumerus 13.5922 29.1762 -73.2285
rradius 57.1477
rwrist 15.2209
rhand -22.3903 -41.4423
rfingers 7.12502
rthumb 4.03192 -71.3839
lclavicle 8.94531e-016 -6.65929e-015
lhumerus 10.9935 -34.8388 80.8979
lradius 61.1169
lwrist -3.2937
lhand -17.9173 -26.1217
lfingers 7.12502
lthumb 8.35011 3.69321
rfemur -20.1569 -4.55192 16.6724
rtibia 4.77282
rfoot -17.0997 -16.9723
rtoes -3.82712
lfemur -39.0924 -1.40933 -11.9541
ltibia 31.1619
lfoot -14.4219 4.39896
ltoes -55.2195
430
root -0.161769 18.8057 4.81661 21.5365 6.70125 -2.56595
lowerback 32.1548 -0.638696 0.737237
upperback 3.87766 -0.305978 1.61041
thorax -12.3451 -0.134338 1.44723
lowerneck -14.0952 -3.31053 0.310809
upperneck -14.1115 -3.94103 7.56077
head -2.01659 -2.10705 2.29641
rclavicle 6.55989e-015 -1.74931e-014
rhumerus 13.3799 28.4751 -73.9872
rradius 56.6687
rwrist 15.7913
rhand -22.1981 -41.3354
rfingers 7.12502
rthumb 4.21752 -71.2734
lclavicle 6.55989e-015 -1.74931e-014
lhumerus 11.0402 -34.9562 80.7366
lradius 61.0902
lwrist -3.14132
lhand -17.9817 -25.8765
lfingers 7.12502
lthumb 8.28803 3.94087
rfemur -20.0981 -4.57006 16.7304
rtibia 4.78111
rfoot -17.201 -16.895
rtoes -3.42489
lfemur -39.0619 -1.40399 -11.9109
ltibia 31.1738
lfoot -14.4537 4.38561
ltoes -55.1792
431
root -0.161891 18.806 4.82874 21.5317 6.58058 -2.55563
lowerback 31.9529 -0.60208 0.706847
upperback 3.86539 -0.288394 1.50825
thorax -12.2749 -0.127159 1.34549
lowerneck -13.9857 -3.53133 -0.226164
upperneck -13.6625 -4.15261 8.19862
head -1.84878 -2.18442 2.58822
rclavicle 1.00386e-014 -1.17283e-014
rhumerus 13.0916 27.5184 -75.0686
rradius 56.2628
rwrist 16.3325
rhand -21.8559 -41.2324
rfingers 7.12502
rthumb 4.54789 -71.1636
lclavicle 1.00386e-014 -1.17283e-014
lhumerus 11.1225 -35.1269 80.4584
lradius 61.0065
lwrist -2.99281
lhand -17.8768 -25.5925
lfingers 7.12502
lthumb 8.38924 4.22093
rfemur -20.0109 -4.46446 16.6686
rtibia 4.66189
rfoot -17.21 -16.8945
rtoes -3.14371
lfemur -38.9835 -1.35872 -11.9471
ltibia 31.1721
lfoot -14.5241 4.4448
ltoes -55.1751
432
root -0.163951 18.8072 4.83748 21.4921 6.37142 -2.51786
lowerback 31.8848 -0.52369 0.659384
upperback 3.84066 -0.228441 1.35446
thorax -12.2751 -0.100959 1.18265
lowerneck -13.9345 -3.63885 -0.485426
upperneck -13.1543 -4.28231 8.40492
head -1.66947 -2.22614 2.6867
rclavicle 1.39149e-015 -6.55989e-015
rhumerus 12.7743 26.4334 -76.2147
rradius 55.9062
rwrist 17.032
rhand -21.71 -40.9173
rfingers 7.12502
rthumb 4.68877 -70.8454
lclavicle 1.39149e-015 -6.55989e-015
lhumerus 11.2748 -35.3481 80.1114
lradius 60.9228
lwrist -2.80318
lhand -17.7484 -25.5809
lfingers 7.12502
lthumb 8.5131 4.22746
rfemur -19.7659 -4.28445 16.5455
rtibia 4.25526
rfoot -17.0339 -17.0435
rtoes -3.21108
lfemur -38.854 -1.25479 -12.033
ltibia 31.1807
lfoot -14.5863 4.49812
ltoes -55.2359
433
root -0.16714 18.8088 4.84698 21.4613 6.17116 -2.53399
lowerback 31.8485 -0.428326 0.656822
upperback 3.79444 -0.126367 1.23368
thorax -12.3135 -0.0572878 1.01516
lowerneck -14.0627 -3.71244 -0.458347
upperneck -12.5585 -4.43836 8.17044
head -1.44887 -2.28497 2.57871
rclavicle 4.17448e-015 4.67144e-015
rhumerus 12.4556 25.4028 -77.2269
rradius 55.6019
rwrist 17.7368
rhand -21.6554 -40.5938
rfingers 7.12502
rthumb 4.74153 -70.5207
lclavicle 4.17448e-015 4.67144e-015
lhumerus 11.387 -35.528 79.8806
lradius 60.9239
lwrist -2.66463
lhand -17.655 -25.6966
lfingers 7.12502
lthumb 8.60333 4.1081
rfemur -19.4273 -4.08904 16.4887
rtibia 3.62273
rfoot -16.7471 -17.2935
rtoes -3.39706
lfemur -38.7496 -1.12853 -12.0516
ltibia 31.2023
lfoot -14.6524 4.52679
ltoes -55.1993
434
root -0.17048 18.8098 4.8503 21.515 6.00366 -2.88553
lowerback 31.777 -0.330087 0.892433
upperback 3.73706 0.0779758 1.24772
thorax -12.3501 0.0234892 0.82387
lowerneck -14.1738 -3.68403 -0.362409
upperneck -12.0708 -4.46904 7.70422
head -1.28227 -2.2863 2.39024
rclavicle -2.78299e-015 -1.59028e-015
rhumerus 12.3604 24.7083 -77.7494
rradius 55.3803
rwrist 18.1567
rhand -21.6691 -40.4728
rfingers 7.12502
rthumb 4.72827 -70.4
lclavicle -2.78299e-015 -1.59028e-015
lhumerus 11.5282 -35.5424 79.7939
lradius 60.9977
lwrist -2.69036
lhand -17.5446 -25.7492
lfingers 7.12502
lthumb 8.70981 4.05106
rfemur -19.3521 -3.78904 16.8148
rtibia 3.1916
rfoot -16.5436 -17.5005
rtoes -3.50201
lfemur -38.7872 -0.96775 -11.6579
ltibia 31.2027
lfoot -14.7291 4.65516
ltoes -55.1103
435
root -0.171544 18.8108 4.85216 21.5522 5.87592 -3.2276
lowerback 31.7166 -0.25248 1.08149
upperback 3.72568 0.249085 1.32613
thorax -12.3384 0.0925636 0.739479
lowerneck -14.2121 -3.55796 -0.357493
upperneck -11.7555 -4.34034 7.26958
head -1.18866 -2.2105 2.24202
rclavicle -2.87244e-014 3.77691e-015
rhumerus 12.5019 24.4903 -77.7445
rradius 55.2921
rwrist 18.1799
rhand -21.7431 -40.6353
rfingers 7.12502
rthumb 4.65682 -70.5641
lclavicle -2.87244e-014 3.77691e-015
lhumerus 11.6843 -35.3466 79.7836
lradius 61.1228
lwrist -2.79883
lhand -17.4359 -25.8932
lfingers 7.12502
lthumb 8.81476 3.90276
rfemur -19.4199 -3.53025 17.1387
rtibia 3.09137
rfoot -16.433 -17.615
rtoes -3.80711
lfemur -38.8024 -0.846051 -11.2746
ltibia 31.1774
lfoot -14.7813 4.81448
ltoes -55.1241
436
root -0.170375 18.8142 4.86334 21.4677 5.84697 -2.92958
lowerback 31.6749 -0.225725 0.792847
upperback 3.78266 0.180893 1.3007
thorax -12.2576 0.0747546 0.894025
lowerneck -14.2548 -3.45655 -0.468311
upperneck -11.4154 -4.21947 7.02825
head -1.07847 -2.13497 2.17858
rclavicle -4.37326e-015 -1.2424e-014
rhumerus 12.62 24.6729 -77.4002
rradius 55.4464
rwrist 17.8658
rhand -21.7918 -40.9795
rfingers 7.12502
rthumb 4.60984 -70.9093
lclavicle -4.37326e-015 -1.2424e-014
lhumerus 11.7447 -35.0557 79.8287
lradius 61.3253
lwrist -2.94265
lhand -17.3697 -26.0383
lfingers 7.12502
lthumb 8.87862 3.75493
rfemur -19.3175 -3.62306 16.8011
rtibia 3.22836
rfoot -16.4489 -17.5821
rtoes -4.05774
lfemur -38.6115 -0.858659 -11.6592
ltibia 31.1287
lfoot -14.7546 4.7617
ltoes -55.2979
437
root -0.169477 18.8178 4.87391 21.4319 5.82713 -2.57567
lowerback 31.6191 -0.203506 0.480514
upperback 3.7997 0.0966263 1.2515
thorax -12.215 0.0501545 1.04224
lowerneck -14.3561 -3.40305 -0.500782
upperneck -10.9653 -4.17828 6.79909
head -0.922045 -2.1002 2.10018
rclavicle -9.24349e-015 1.28216e-014
rhumerus 12.6328 25.0568 -76.8693
rradius 55.8007
rwrist 17.353
rhand -21.7834 -41.1821
rfingers 7.12502
rthumb 4.61794 -71.1118
lclavicle -9.24349e-015 1.28216e-014
lhumerus 11.7583 -34.8238 79.8449
lradius 61.5647
lwrist -3.03999
lhand -17.4729 -26.0715
lfingers 7.12502
lthumb 8.77903 3.72592
rfemur -19.4521 -3.74634 16.4177
rtibia 3.76364
rfoot -16.6421 -17.4073
rtoes -4.19567
lfemur -38.4674 -0.916251 -12.089
ltibia 31.0535
lfoot -14.7089 4.72467
ltoes -55.4771
438
root -0.170409 18.8201 4.88028 21.4939 5.79529 -2.49326
lowerback 31.5278 -0.190388 0.404409
upperback 3.75886 0.0837214 1.22784
thorax -12.2228 0.0474276 1.06295
lowerneck -14.4649 -3.3318 -0.309021
upperneck -10.5788 -4.14592 6.42034
head -0.794726 -2.08047 1.93534
rclavicle -2.28602e-015 8.94531e-016
rhumerus 12.6068 25.485 -76.3465
rradius 56.1518
rwrist 16.8607
rhand -21.687 -41.1505
rfingers 7.12502
rthumb 4.71105 -71.0781
lclavicle -2.28602e-015 8.94531e-016
lhumerus 11.833 -34.6842 79.7336
lradius 61.6972
lwrist -3.08707
lhand -17.7895 -26.0443
lfingers 7.12502
lthumb 8.47347 3.76569
rfemur -19.8498 -3.7475 16.3414
rtibia 4.48629
rfoot -16.8771 -17.2215
rtoes -4.45946
lfemur -38.4617 -0.970329 -12.16
ltibia 30.9682
lfoot -14.6722 4.80416
ltoes -55.479
439
root -0.173527 18.8215 4.88835 21.5395 5.79356 -2.42349
lowerback 31.4244 -0.198699 0.362301
upperback 3.73018 0.0530929 1.19045
thorax -12.211 0.035015 1.05724
lowerneck -14.5608 -3.27198 -0.111492
upperneck -10.301 -4.11946 6.12965
head -0.702856 -2.06688 1.80155
rclavicle 1.28216e-014 -1.98785e-016
rhumerus 12.5871 25.9058 -75.9154
rradius 56.4053
rwrist 16.4891
rhand -21.6625 -41.1192
rfingers 7.12502
rthumb 4.73468 -71.0463
lclavicle 1.28216e-014 -1.98785e-016
lhumerus 12.0079 -34.5543 79.5912
lradius 61.688
lwrist -3.08872
lhand -17.9869 -26.0063
lfingers 7.12502
lthumb 8.28294 3.81133
rfemur -20.0933 -3.76515 16.3011
rtibia 4.95107
rfoot -17.0643 -17.0925
rtoes -4.39964
lfemur -38.4559 -0.980171 -12.2223
ltibia 30.93
lfoot -14.6267 4.81609
ltoes -55.425
440
root -0.176313 18.8214 4.89536 21.5342 5.76417 -2.38975
lowerback 31.3863 -0.201272 0.360361
upperback 3.71006 0.0418265 1.13945
thorax -12.2171 0.0292209 1.00797
lowerneck -14.6339 -3.23554 -0.0158118
upperneck -10.0686 -4.0988 6.04547
head -0.62142 -2.05348 1.75408
rclavicle -4.87022e-015 -2.38542e-015
rhumerus 12.5511 26.2139 -75.6223
rradius 56.5819
rwrist 16.2844
rhand -21.8156 -41.134
rfingers 7.12502
rthumb 4.58688 -71.0644
lclavicle -4.87022e-015 -2.38542e-015
lhumerus 12.2192 -34.3966 79.486
lradius 61.6455
lwrist -2.97036
lhand -17.9196 -26.0394
lfingers 7.12502
lthumb 8.34789 3.77566
rfemur -20.1688 -3.74122 16.2798
rtibia 5.16303
rfoot -17.1972 -17.023
rtoes -4.20644
lfemur -38.4241 -0.976276 -12.2564
ltibia 30.943
lfoot -14.6348 4.84413
ltoes -55.4361
441
root -0.175884 18.8197 4.89921 21.5261 5.72202 -2.42303
lowerback 31.3551 -0.220841 0.469116
upperback 3.68509 0.0432311 1.06889
thorax -12.2314 0.0238065 0.873067
lowerneck -14.6751 -3.1854 0.0976821
upperneck -9.85042 -4.05848 6.02616
head -0.54903 -2.03117 1.72637
rclavicle -9.34288e-015 -1.09332e-015
rhumerus 12.5237 26.3591 -75.493
rradius 56.6385
rwrist 16.2369
rhand -21.9391 -41.1396
rfingers 7.12502
rthumb 4.46762 -71.0724
lclavicle -9.34288e-015 -1.09332e-015
lhumerus 12.3972 -34.282 79.3355
lradius 61.6301
lwrist -2.92679
lhand -17.8625 -26.0092
lfingers 7.12502
lthumb 8.40305 3.80368
rfemur -20.2236 -3.68763 16.3003
rtibia 5.28388
rfoot -17.2689 -16.9875
rtoes -4.22225
lfemur -38.4196 -1.02276 -12.2071
ltibia 30.9763
lfoot -14.6933 4.94607
ltoes -55.4402
442
root -0.174323 18.818 4.90256 21.54 5.71431 -2.46635
lowerback 31.2656 -0.265735 0.570696
upperback 3.66224 0.0132762 1.02643
thorax -12.2184 0.00507845 0.783933
lowerneck -14.7378 -3.10159 0.258403
upperneck -9.59313 -3.98409 5.95942
head -0.464005 -1.99213 1.67611
rclavicle 1.22253e-014 6.4605e-015
rhumerus 12.5706 26.4473 -75.4852
rradius 56.5341
rwrist 16.3223
rhand -21.8727 -41.0713
rfingers 7.12502
rthumb 4.53169 -71.0028
lclavicle 1.22253e-014 6.4605e-015
lhumerus 12.5026 -34.1579 79.1729
lradius 61.631
lwrist -2.99649
lhand -17.9004 -25.862
lfingers 7.12502
lthumb 8.36642 3.95234
rfemur -20.2799 -3.66612 16.3382
rtibia 5.35902
rfoot -17.2977 -16.9601
rtoes -4.21956
lfemur -38.4464 -1.07876 -12.1448
ltibia 31.0191
lfoot -14.7452 5.03563
ltoes -55.4352
